<?xml version="1.0" standalone="no"?>
<!DOCTYPE svg PUBLIC "-//W3C//DTD SVG 20010904//EN"
 "http://www.w3.org/TR/2001/REC-SVG-20010904/DTD/svg10.dtd">
<svg version="1.0" xmlns="http://www.w3.org/2000/svg"
 width="256.000000pt" height="256.000000pt" viewBox="0 0 256.000000 256.000000"
 preserveAspectRatio="xMidYMid meet">
<metadata>
Created by potrace 1.13, written by Peter Selinger 2001-2015
</metadata>
<g transform="translate(0.000000,256.000000) scale(0.100000,-0.100000)"
fill="#000000" stroke="none">
<path d="M885 2141 c-130 -10 -301 -32 -314 -40 -13 -8 -112 -224 -174 -381
-63 -158 -77 -231 -77 -411 l0 -149 -25 0 c-24 0 -25 -3 -25 -60 0 -52 2 -60
19 -60 38 0 51 -11 51 -46 l0 -34 60 0 60 0 0 -80 c0 -73 3 -83 25 -105 23
-24 31 -25 134 -25 62 0 121 5 135 12 31 14 46 59 46 141 l0 57 449 0 c400 0
450 -2 455 -16 3 -9 6 -47 6 -85 0 -61 3 -73 25 -94 23 -24 30 -25 140 -25
110 0 117 1 140 25 23 22 25 32 25 110 l0 85 60 0 60 0 0 34 c0 32 3 35 33 38
32 3 32 3 35 66 3 61 2 62 -23 62 l-25 0 0 158 c0 188 -12 246 -94 451 -83
207 -142 328 -163 335 -10 3 -74 13 -143 21 -143 18 -731 28 -895 16z m680
-21 c148 -9 291 -24 341 -35 45 -10 261 -556 241 -607 -4 -9 -6 -8 -6 3 -1 17
-101 40 -266 60 -128 16 -461 5 -597 -20 -182 -33 -351 -85 -515 -156 l-63
-28 0 -83 0 -84 -143 0 -143 0 -55 -40 c-30 -23 -55 -45 -57 -50 -2 -6 12 -10
32 -10 36 0 36 0 34 -42 l-1 -43 -4 38 c-4 35 -6 37 -39 37 -35 0 -35 1 -32
38 2 29 8 38 24 40 21 3 22 8 27 185 3 144 9 196 25 248 29 96 115 308 170
419 l47 95 95 13 c225 30 608 39 885 22z m620 -980 c22 0 25 -4 25 -40 0 -39
-1 -40 -35 -40 -34 0 -35 -1 -35 -40 l0 -40 -60 0 -60 0 0 -90 c0 -125 -6
-130 -143 -130 -142 0 -145 2 -149 130 -2 55 0 100 5 100 4 0 7 -42 7 -94 0
-124 2 -126 128 -126 138 0 142 3 142 131 l0 99 60 0 60 0 0 35 c0 33 2 35 35
35 32 0 35 2 35 30 0 25 -4 30 -25 30 l-25 0 2 168 2 167 3 -162 3 -163 25 0z
m-45 155 l0 -125 -170 0 -170 0 0 125 0 125 170 0 170 0 0 -125z m-430 -90 l0
-65 -460 0 -460 0 0 65 0 65 460 0 460 0 0 -65z"/>
<path d="M925 2089 c-116 -5 -216 -6 -223 -4 -7 3 -10 0 -7 -5 6 -9 -49 -16
-96 -12 -10 1 -19 -8 -22 -21 -6 -21 -6 -21 8 -3 27 36 15 6 -46 -115 -45 -91
-119 -278 -119 -302 0 -1 374 -2 830 -2 457 0 830 0 830 0 0 1 -17 53 -39 117
-45 133 -134 315 -159 322 -77 23 -647 38 -957 25z m754 -30 c90 -6 174 -15
187 -19 16 -7 39 -40 72 -107 49 -98 119 -280 111 -288 -3 -2 -183 0 -402 5
-229 5 -565 5 -794 0 -219 -5 -399 -8 -400 -6 -8 8 61 185 110 283 52 103 59
112 89 118 133 23 756 32 1027 14z"/>
<path d="M370 1295 l0 -115 160 0 160 0 0 115 0 115 -160 0 -160 0 0 -115z
m294 79 c3 -9 6 -51 6 -95 l0 -79 -140 0 -140 0 0 95 0 95 134 0 c113 0 135
-2 140 -16z"/>
<path d="M1810 1295 l0 -115 160 0 160 0 0 115 0 115 -160 0 -160 0 0 -115z
m300 0 l0 -95 -135 0 -135 0 0 95 0 95 135 0 135 0 0 -95z"/>
<path d="M180 1701 l0 -59 65 -41 c35 -23 69 -41 73 -41 8 0 36 74 67 178 6
22 6 22 -99 22 l-106 0 0 -59z m174 17 c-24 -77 -42 -123 -47 -123 -3 0 -28
13 -56 30 -49 28 -51 31 -51 72 l0 43 81 0 c79 0 80 0 73 -22z"/>
<path d="M2113 1748 c2 -7 17 -52 33 -100 15 -49 33 -88 39 -88 5 0 41 21 79
46 64 43 68 48 62 76 -3 17 -6 41 -6 54 0 24 -1 24 -106 24 -81 0 -105 -3
-101 -12z m187 -50 c0 -40 -3 -45 -43 -70 -63 -40 -67 -39 -87 17 -36 106 -42
95 49 95 l81 0 0 -42z"/>
<path d="M184 729 c-37 -10 -134 -94 -134 -115 0 -11 21 -14 99 -14 107 0 125
-7 137 -56 9 -36 -1 -133 -15 -147 -7 -7 -56 -14 -124 -17 l-112 -5 40 -44
c111 -123 292 -122 402 3 l41 46 732 0 732 0 41 -46 c103 -117 283 -128 385
-23 67 68 66 69 -51 69 -131 0 -141 8 -141 110 0 101 10 110 136 110 114 0
119 5 56 68 -106 103 -280 95 -380 -16 l-38 -42 -738 0 -738 0 -55 53 c-33 32
-70 57 -95 65 -47 14 -134 14 -180 1z m191 -28 c23 -10 59 -39 82 -65 l41 -46
751 0 751 0 42 47 c24 25 61 54 83 64 49 23 142 25 192 4 43 -18 103 -62 103
-76 0 -5 -40 -9 -90 -9 -76 0 -93 -3 -109 -19 -25 -25 -35 -79 -28 -144 10
-78 28 -91 140 -97 l92 -5 -30 -29 c-68 -65 -186 -86 -270 -47 -39 17 -115 91
-115 111 0 7 -260 10 -757 9 l-758 0 -30 -42 c-30 -41 -96 -87 -125 -87 -8 0
3 9 25 19 22 10 61 41 87 69 l46 52 761 0 c482 0 761 -4 761 -10 0 -18 63 -81
99 -99 79 -40 177 -34 237 14 l29 24 -45 1 c-66 0 -116 17 -140 47 -16 21 -20
40 -20 99 0 121 20 143 140 153 l75 6 -42 29 c-32 21 -58 30 -107 33 -57 5
-72 2 -122 -22 -36 -17 -65 -41 -82 -66 l-27 -38 -765 0 -765 0 -30 41 c-75
104 -244 120 -331 33 -14 -14 -29 -23 -32 -20 -9 9 34 42 83 65 52 26 146 26
200 1z"/>
</g>
</svg>
